<mxfile host="app.diagrams.net" modified="2023-11-28T11:44:52.216Z" agent="Mozilla/5.0 (Macintosh; Intel Mac OS X 10_15_7) AppleWebKit/537.36 (KHTML, like Gecko) Chrome/119.0.0.0 Safari/537.36" etag="UdPfnoOys74eloTQyRHl" version="22.1.4" type="device">
  <diagram name="Page-1" id="0RcavXRqfJD4Tzh5sjYZ">
    <mxGraphModel dx="1309" dy="758" grid="1" gridSize="10" guides="1" tooltips="1" connect="1" arrows="1" fold="1" page="1" pageScale="1" pageWidth="1920" pageHeight="1200" math="0" shadow="0">
      <root>
        <mxCell id="0" />
        <mxCell id="1" parent="0" />
        <mxCell id="gzV1gFlJIfgNqD0elh6Z-200" value="" style="rounded=0;whiteSpace=wrap;html=1;" vertex="1" parent="1">
          <mxGeometry x="1070" y="360" width="140" height="430" as="geometry" />
        </mxCell>
        <mxCell id="gzV1gFlJIfgNqD0elh6Z-197" value="" style="rounded=0;whiteSpace=wrap;html=1;" vertex="1" parent="1">
          <mxGeometry x="740" y="360" width="290" height="430" as="geometry" />
        </mxCell>
        <mxCell id="gzV1gFlJIfgNqD0elh6Z-196" value="" style="rounded=0;whiteSpace=wrap;html=1;" vertex="1" parent="1">
          <mxGeometry x="500" y="360" width="210" height="430" as="geometry" />
        </mxCell>
        <mxCell id="gzV1gFlJIfgNqD0elh6Z-157" value="" style="rounded=0;whiteSpace=wrap;html=1;" vertex="1" parent="1">
          <mxGeometry x="760" y="380" width="260" height="90" as="geometry" />
        </mxCell>
        <mxCell id="gzV1gFlJIfgNqD0elh6Z-117" value="opcode 1" style="rounded=0;whiteSpace=wrap;html=1;" vertex="1" parent="1">
          <mxGeometry x="510" y="410" width="70" height="30" as="geometry" />
        </mxCell>
        <mxCell id="gzV1gFlJIfgNqD0elh6Z-159" style="edgeStyle=orthogonalEdgeStyle;rounded=0;orthogonalLoop=1;jettySize=auto;html=1;entryX=0;entryY=0.5;entryDx=0;entryDy=0;" edge="1" parent="1" source="gzV1gFlJIfgNqD0elh6Z-118" target="gzV1gFlJIfgNqD0elh6Z-157">
          <mxGeometry relative="1" as="geometry" />
        </mxCell>
        <mxCell id="gzV1gFlJIfgNqD0elh6Z-118" value="parameter struct 1" style="rounded=0;whiteSpace=wrap;html=1;" vertex="1" parent="1">
          <mxGeometry x="580" y="410" width="120" height="30" as="geometry" />
        </mxCell>
        <mxCell id="gzV1gFlJIfgNqD0elh6Z-119" value="opcode 2" style="rounded=0;whiteSpace=wrap;html=1;" vertex="1" parent="1">
          <mxGeometry x="510" y="495" width="70" height="30" as="geometry" />
        </mxCell>
        <mxCell id="gzV1gFlJIfgNqD0elh6Z-161" style="edgeStyle=orthogonalEdgeStyle;rounded=0;orthogonalLoop=1;jettySize=auto;html=1;entryX=0;entryY=0.5;entryDx=0;entryDy=0;exitX=1;exitY=0.5;exitDx=0;exitDy=0;" edge="1" parent="1" source="gzV1gFlJIfgNqD0elh6Z-124" target="gzV1gFlJIfgNqD0elh6Z-160">
          <mxGeometry relative="1" as="geometry">
            <mxPoint x="570" y="665" as="sourcePoint" />
          </mxGeometry>
        </mxCell>
        <mxCell id="gzV1gFlJIfgNqD0elh6Z-120" value="parameter struct 2" style="rounded=0;whiteSpace=wrap;html=1;" vertex="1" parent="1">
          <mxGeometry x="580" y="495" width="120" height="30" as="geometry" />
        </mxCell>
        <mxCell id="gzV1gFlJIfgNqD0elh6Z-121" value="opcode 3" style="rounded=0;whiteSpace=wrap;html=1;" vertex="1" parent="1">
          <mxGeometry x="510" y="580" width="70" height="30" as="geometry" />
        </mxCell>
        <mxCell id="gzV1gFlJIfgNqD0elh6Z-173" style="edgeStyle=orthogonalEdgeStyle;rounded=0;orthogonalLoop=1;jettySize=auto;html=1;entryX=0;entryY=0.5;entryDx=0;entryDy=0;" edge="1" parent="1" source="gzV1gFlJIfgNqD0elh6Z-122" target="gzV1gFlJIfgNqD0elh6Z-162">
          <mxGeometry relative="1" as="geometry" />
        </mxCell>
        <mxCell id="gzV1gFlJIfgNqD0elh6Z-122" value="parameter struct 3" style="rounded=0;whiteSpace=wrap;html=1;" vertex="1" parent="1">
          <mxGeometry x="580" y="580" width="120" height="30" as="geometry" />
        </mxCell>
        <mxCell id="gzV1gFlJIfgNqD0elh6Z-123" value="opcode 4" style="rounded=0;whiteSpace=wrap;html=1;" vertex="1" parent="1">
          <mxGeometry x="510" y="650" width="70" height="30" as="geometry" />
        </mxCell>
        <mxCell id="gzV1gFlJIfgNqD0elh6Z-124" value="parameter struct 4" style="rounded=0;whiteSpace=wrap;html=1;" vertex="1" parent="1">
          <mxGeometry x="580" y="650" width="120" height="30" as="geometry" />
        </mxCell>
        <mxCell id="gzV1gFlJIfgNqD0elh6Z-125" value="opcode 5" style="rounded=0;whiteSpace=wrap;html=1;" vertex="1" parent="1">
          <mxGeometry x="510" y="720" width="70" height="30" as="geometry" />
        </mxCell>
        <mxCell id="gzV1gFlJIfgNqD0elh6Z-184" style="edgeStyle=orthogonalEdgeStyle;rounded=0;orthogonalLoop=1;jettySize=auto;html=1;entryX=0;entryY=0.5;entryDx=0;entryDy=0;" edge="1" parent="1" source="gzV1gFlJIfgNqD0elh6Z-126" target="gzV1gFlJIfgNqD0elh6Z-176">
          <mxGeometry relative="1" as="geometry" />
        </mxCell>
        <mxCell id="gzV1gFlJIfgNqD0elh6Z-126" value="parameter struct 5" style="rounded=0;whiteSpace=wrap;html=1;" vertex="1" parent="1">
          <mxGeometry x="580" y="720" width="120" height="30" as="geometry" />
        </mxCell>
        <mxCell id="gzV1gFlJIfgNqD0elh6Z-129" value="&lt;font style=&quot;font-size: 20px;&quot;&gt;Program&lt;/font&gt;" style="text;html=1;strokeColor=none;fillColor=none;align=center;verticalAlign=middle;whiteSpace=wrap;rounded=0;" vertex="1" parent="1">
          <mxGeometry x="550" y="290" width="110" height="60" as="geometry" />
        </mxCell>
        <mxCell id="gzV1gFlJIfgNqD0elh6Z-142" value="&lt;font style=&quot;font-size: 20px;&quot;&gt;Judgement Result&lt;/font&gt;" style="text;html=1;strokeColor=none;fillColor=none;align=center;verticalAlign=middle;whiteSpace=wrap;rounded=0;" vertex="1" parent="1">
          <mxGeometry x="780" y="290" width="180" height="60" as="geometry" />
        </mxCell>
        <mxCell id="gzV1gFlJIfgNqD0elh6Z-145" style="edgeStyle=orthogonalEdgeStyle;rounded=0;orthogonalLoop=1;jettySize=auto;html=1;" edge="1" parent="1" source="gzV1gFlJIfgNqD0elh6Z-143" target="gzV1gFlJIfgNqD0elh6Z-144">
          <mxGeometry relative="1" as="geometry" />
        </mxCell>
        <mxCell id="gzV1gFlJIfgNqD0elh6Z-143" value="plugin 1" style="rounded=0;whiteSpace=wrap;html=1;" vertex="1" parent="1">
          <mxGeometry x="826.25" y="390" width="67.5" height="20" as="geometry" />
        </mxCell>
        <mxCell id="gzV1gFlJIfgNqD0elh6Z-144" value="voting rule 1" style="rounded=0;whiteSpace=wrap;html=1;" vertex="1" parent="1">
          <mxGeometry x="915" y="390" width="90" height="20" as="geometry" />
        </mxCell>
        <mxCell id="gzV1gFlJIfgNqD0elh6Z-151" style="edgeStyle=orthogonalEdgeStyle;rounded=0;orthogonalLoop=1;jettySize=auto;html=1;" edge="1" parent="1" source="gzV1gFlJIfgNqD0elh6Z-152" target="gzV1gFlJIfgNqD0elh6Z-153">
          <mxGeometry relative="1" as="geometry" />
        </mxCell>
        <mxCell id="gzV1gFlJIfgNqD0elh6Z-152" value="plugin 3" style="rounded=0;whiteSpace=wrap;html=1;" vertex="1" parent="1">
          <mxGeometry x="826.25" y="415" width="67.5" height="20" as="geometry" />
        </mxCell>
        <mxCell id="gzV1gFlJIfgNqD0elh6Z-153" value="voting rule 1" style="rounded=0;whiteSpace=wrap;html=1;" vertex="1" parent="1">
          <mxGeometry x="915" y="415" width="90" height="20" as="geometry" />
        </mxCell>
        <mxCell id="gzV1gFlJIfgNqD0elh6Z-154" style="edgeStyle=orthogonalEdgeStyle;rounded=0;orthogonalLoop=1;jettySize=auto;html=1;" edge="1" parent="1" source="gzV1gFlJIfgNqD0elh6Z-155" target="gzV1gFlJIfgNqD0elh6Z-156">
          <mxGeometry relative="1" as="geometry" />
        </mxCell>
        <mxCell id="gzV1gFlJIfgNqD0elh6Z-155" value="plugin 4" style="rounded=0;whiteSpace=wrap;html=1;" vertex="1" parent="1">
          <mxGeometry x="826.25" y="440" width="67.5" height="20" as="geometry" />
        </mxCell>
        <mxCell id="gzV1gFlJIfgNqD0elh6Z-156" value="voting rule 2" style="rounded=0;whiteSpace=wrap;html=1;" vertex="1" parent="1">
          <mxGeometry x="915" y="440" width="90" height="20" as="geometry" />
        </mxCell>
        <mxCell id="gzV1gFlJIfgNqD0elh6Z-158" value="VOTING NEEDED" style="text;html=1;strokeColor=none;fillColor=none;align=center;verticalAlign=middle;whiteSpace=wrap;rounded=0;" vertex="1" parent="1">
          <mxGeometry x="760" y="410" width="60" height="30" as="geometry" />
        </mxCell>
        <mxCell id="gzV1gFlJIfgNqD0elh6Z-160" value="" style="rounded=0;whiteSpace=wrap;html=1;" vertex="1" parent="1">
          <mxGeometry x="760" y="645" width="260" height="40" as="geometry" />
        </mxCell>
        <mxCell id="gzV1gFlJIfgNqD0elh6Z-162" value="" style="rounded=0;whiteSpace=wrap;html=1;" vertex="1" parent="1">
          <mxGeometry x="760" y="560" width="260" height="70" as="geometry" />
        </mxCell>
        <mxCell id="gzV1gFlJIfgNqD0elh6Z-163" style="edgeStyle=orthogonalEdgeStyle;rounded=0;orthogonalLoop=1;jettySize=auto;html=1;" edge="1" parent="1" source="gzV1gFlJIfgNqD0elh6Z-164" target="gzV1gFlJIfgNqD0elh6Z-165">
          <mxGeometry relative="1" as="geometry" />
        </mxCell>
        <mxCell id="gzV1gFlJIfgNqD0elh6Z-164" value="plugin 7" style="rounded=0;whiteSpace=wrap;html=1;" vertex="1" parent="1">
          <mxGeometry x="826.25" y="570" width="67.5" height="20" as="geometry" />
        </mxCell>
        <mxCell id="gzV1gFlJIfgNqD0elh6Z-165" value="voting rule 5" style="rounded=0;whiteSpace=wrap;html=1;" vertex="1" parent="1">
          <mxGeometry x="915" y="570" width="90" height="20" as="geometry" />
        </mxCell>
        <mxCell id="gzV1gFlJIfgNqD0elh6Z-166" style="edgeStyle=orthogonalEdgeStyle;rounded=0;orthogonalLoop=1;jettySize=auto;html=1;" edge="1" parent="1" source="gzV1gFlJIfgNqD0elh6Z-167" target="gzV1gFlJIfgNqD0elh6Z-168">
          <mxGeometry relative="1" as="geometry" />
        </mxCell>
        <mxCell id="gzV1gFlJIfgNqD0elh6Z-167" value="plugin 10" style="rounded=0;whiteSpace=wrap;html=1;" vertex="1" parent="1">
          <mxGeometry x="826.25" y="600" width="67.5" height="20" as="geometry" />
        </mxCell>
        <mxCell id="gzV1gFlJIfgNqD0elh6Z-168" value="voting rule 1" style="rounded=0;whiteSpace=wrap;html=1;" vertex="1" parent="1">
          <mxGeometry x="915" y="600" width="90" height="20" as="geometry" />
        </mxCell>
        <mxCell id="gzV1gFlJIfgNqD0elh6Z-174" style="edgeStyle=orthogonalEdgeStyle;rounded=0;orthogonalLoop=1;jettySize=auto;html=1;entryX=0;entryY=0.5;entryDx=0;entryDy=0;exitX=1;exitY=0.5;exitDx=0;exitDy=0;" edge="1" parent="1" target="gzV1gFlJIfgNqD0elh6Z-175" source="gzV1gFlJIfgNqD0elh6Z-120">
          <mxGeometry relative="1" as="geometry">
            <mxPoint x="570" y="510" as="sourcePoint" />
          </mxGeometry>
        </mxCell>
        <mxCell id="gzV1gFlJIfgNqD0elh6Z-175" value="YES" style="rounded=0;whiteSpace=wrap;html=1;" vertex="1" parent="1">
          <mxGeometry x="760" y="490" width="260" height="40" as="geometry" />
        </mxCell>
        <mxCell id="gzV1gFlJIfgNqD0elh6Z-176" value="" style="rounded=0;whiteSpace=wrap;html=1;" vertex="1" parent="1">
          <mxGeometry x="760" y="700" width="260" height="70" as="geometry" />
        </mxCell>
        <mxCell id="gzV1gFlJIfgNqD0elh6Z-177" style="edgeStyle=orthogonalEdgeStyle;rounded=0;orthogonalLoop=1;jettySize=auto;html=1;" edge="1" parent="1" source="gzV1gFlJIfgNqD0elh6Z-178" target="gzV1gFlJIfgNqD0elh6Z-179">
          <mxGeometry relative="1" as="geometry" />
        </mxCell>
        <mxCell id="gzV1gFlJIfgNqD0elh6Z-178" value="plugin 4" style="rounded=0;whiteSpace=wrap;html=1;" vertex="1" parent="1">
          <mxGeometry x="826.25" y="710" width="67.5" height="20" as="geometry" />
        </mxCell>
        <mxCell id="gzV1gFlJIfgNqD0elh6Z-179" value="voting rule 2" style="rounded=0;whiteSpace=wrap;html=1;" vertex="1" parent="1">
          <mxGeometry x="915" y="710" width="90" height="20" as="geometry" />
        </mxCell>
        <mxCell id="gzV1gFlJIfgNqD0elh6Z-180" style="edgeStyle=orthogonalEdgeStyle;rounded=0;orthogonalLoop=1;jettySize=auto;html=1;" edge="1" parent="1" source="gzV1gFlJIfgNqD0elh6Z-181" target="gzV1gFlJIfgNqD0elh6Z-182">
          <mxGeometry relative="1" as="geometry" />
        </mxCell>
        <mxCell id="gzV1gFlJIfgNqD0elh6Z-181" value="plugin 10" style="rounded=0;whiteSpace=wrap;html=1;" vertex="1" parent="1">
          <mxGeometry x="826.25" y="740" width="67.5" height="20" as="geometry" />
        </mxCell>
        <mxCell id="gzV1gFlJIfgNqD0elh6Z-182" value="voting rule 1" style="rounded=0;whiteSpace=wrap;html=1;" vertex="1" parent="1">
          <mxGeometry x="915" y="740" width="90" height="20" as="geometry" />
        </mxCell>
        <mxCell id="gzV1gFlJIfgNqD0elh6Z-186" style="edgeStyle=orthogonalEdgeStyle;rounded=0;orthogonalLoop=1;jettySize=auto;html=1;" edge="1" parent="1" source="gzV1gFlJIfgNqD0elh6Z-187" target="gzV1gFlJIfgNqD0elh6Z-188">
          <mxGeometry relative="1" as="geometry" />
        </mxCell>
        <mxCell id="gzV1gFlJIfgNqD0elh6Z-187" value="plugin 14" style="rounded=0;whiteSpace=wrap;html=1;" vertex="1" parent="1">
          <mxGeometry x="826.25" y="655" width="67.5" height="20" as="geometry" />
        </mxCell>
        <mxCell id="gzV1gFlJIfgNqD0elh6Z-188" value="voting rule 7" style="rounded=0;whiteSpace=wrap;html=1;" vertex="1" parent="1">
          <mxGeometry x="915" y="655" width="90" height="20" as="geometry" />
        </mxCell>
        <mxCell id="gzV1gFlJIfgNqD0elh6Z-189" value="&lt;font style=&quot;font-size: 20px;&quot;&gt;Voting Item Array&lt;/font&gt;" style="text;html=1;strokeColor=none;fillColor=none;align=center;verticalAlign=middle;whiteSpace=wrap;rounded=0;" vertex="1" parent="1">
          <mxGeometry x="1050" y="290" width="180" height="60" as="geometry" />
        </mxCell>
        <mxCell id="gzV1gFlJIfgNqD0elh6Z-190" value="Voting Item 1 (rule 1)" style="rounded=0;whiteSpace=wrap;html=1;" vertex="1" parent="1">
          <mxGeometry x="1080" y="370" width="120" height="30" as="geometry" />
        </mxCell>
        <mxCell id="gzV1gFlJIfgNqD0elh6Z-191" value="Voting Item 2 (rule 1)" style="rounded=0;whiteSpace=wrap;html=1;" vertex="1" parent="1">
          <mxGeometry x="1080" y="410" width="120" height="30" as="geometry" />
        </mxCell>
        <mxCell id="gzV1gFlJIfgNqD0elh6Z-192" value="Voting Item 3 (rule 2)" style="rounded=0;whiteSpace=wrap;html=1;" vertex="1" parent="1">
          <mxGeometry x="1080" y="450" width="120" height="30" as="geometry" />
        </mxCell>
        <mxCell id="gzV1gFlJIfgNqD0elh6Z-193" value="Voting Item 4 (rule 5)" style="rounded=0;whiteSpace=wrap;html=1;" vertex="1" parent="1">
          <mxGeometry x="1080" y="560" width="120" height="30" as="geometry" />
        </mxCell>
        <mxCell id="gzV1gFlJIfgNqD0elh6Z-194" value="Voting Item 5 (rule 1)" style="rounded=0;whiteSpace=wrap;html=1;" vertex="1" parent="1">
          <mxGeometry x="1080" y="595" width="120" height="30" as="geometry" />
        </mxCell>
        <mxCell id="gzV1gFlJIfgNqD0elh6Z-195" value="Voting Item 6 (rule 7)" style="rounded=0;whiteSpace=wrap;html=1;" vertex="1" parent="1">
          <mxGeometry x="1080" y="645" width="120" height="30" as="geometry" />
        </mxCell>
        <mxCell id="gzV1gFlJIfgNqD0elh6Z-198" value="Voting Item 7 (rule 2)" style="rounded=0;whiteSpace=wrap;html=1;" vertex="1" parent="1">
          <mxGeometry x="1080" y="700" width="120" height="30" as="geometry" />
        </mxCell>
        <mxCell id="gzV1gFlJIfgNqD0elh6Z-199" value="Voting Item 8 (rule 1)" style="rounded=0;whiteSpace=wrap;html=1;" vertex="1" parent="1">
          <mxGeometry x="1080" y="735" width="120" height="30" as="geometry" />
        </mxCell>
        <mxCell id="gzV1gFlJIfgNqD0elh6Z-201" value="" style="shape=flexArrow;endArrow=classic;html=1;rounded=0;entryX=0.004;entryY=0.533;entryDx=0;entryDy=0;entryPerimeter=0;" edge="1" parent="1" target="gzV1gFlJIfgNqD0elh6Z-200">
          <mxGeometry width="50" height="50" relative="1" as="geometry">
            <mxPoint x="1030" y="589" as="sourcePoint" />
            <mxPoint x="1160" y="525" as="targetPoint" />
          </mxGeometry>
        </mxCell>
        <mxCell id="gzV1gFlJIfgNqD0elh6Z-202" value="VOTING NEEDED" style="text;html=1;strokeColor=none;fillColor=none;align=center;verticalAlign=middle;whiteSpace=wrap;rounded=0;" vertex="1" parent="1">
          <mxGeometry x="760" y="580" width="60" height="30" as="geometry" />
        </mxCell>
        <mxCell id="gzV1gFlJIfgNqD0elh6Z-203" value="VOTING NEEDED" style="text;html=1;strokeColor=none;fillColor=none;align=center;verticalAlign=middle;whiteSpace=wrap;rounded=0;" vertex="1" parent="1">
          <mxGeometry x="760" y="650" width="60" height="30" as="geometry" />
        </mxCell>
        <mxCell id="gzV1gFlJIfgNqD0elh6Z-204" value="VOTING NEEDED" style="text;html=1;strokeColor=none;fillColor=none;align=center;verticalAlign=middle;whiteSpace=wrap;rounded=0;" vertex="1" parent="1">
          <mxGeometry x="760" y="720" width="60" height="30" as="geometry" />
        </mxCell>
      </root>
    </mxGraphModel>
  </diagram>
</mxfile>
